<?xml version="1.0" encoding="UTF-8" standalone="no"?><svg xmlns="http://www.w3.org/2000/svg" xmlns:xlink="http://www.w3.org/1999/xlink" contentStyleType="text/css" height="879px" preserveAspectRatio="none" style="width:1191px;height:879px;background:#FFFFFF;" version="1.1" viewBox="0 0 1191 879" width="1191px" zoomAndPan="magnify"><defs/><g><!--MD5=[798626ce78efd606ee03049e087f86b4]
cluster ActionConditionalChecker.Services.InMemory--><g id="cluster_ActionConditionalChecker.Services.InMemory"><path d="M8.5,6 L331.5,6 A3.75,3.75 0 0 1 334,8.5 L341,29.6094 L1181.5,29.6094 A2.5,2.5 0 0 1 1184,32.1094 L1184,869.5 A2.5,2.5 0 0 1 1181.5,872 L8.5,872 A2.5,2.5 0 0 1 6,869.5 L6,8.5 A2.5,2.5 0 0 1 8.5,6 " fill="none" style="stroke:#000000;stroke-width:1.5;"/><line style="stroke:#000000;stroke-width:1.5;" x1="6" x2="341" y1="29.6094" y2="29.6094"/><text fill="#000000" font-family="sans-serif" font-size="14" font-weight="bold" lengthAdjust="spacing" textLength="322" x="10" y="22.5332">ActionConditionalChecker.Services.InMemory</text></g><!--MD5=[647511b0480f8336996077da996ff9fe]
cluster Hub--><g id="cluster_Hub"><path d="M40.5,678 L69.5,678 A3.75,3.75 0 0 1 72,680.5 L79,701.6094 L406.5,701.6094 A2.5,2.5 0 0 1 409,704.1094 L409,837.5 A2.5,2.5 0 0 1 406.5,840 L40.5,840 A2.5,2.5 0 0 1 38,837.5 L38,680.5 A2.5,2.5 0 0 1 40.5,678 " fill="none" style="stroke:#000000;stroke-width:1.5;"/><line style="stroke:#000000;stroke-width:1.5;" x1="38" x2="79" y1="701.6094" y2="701.6094"/><text fill="#000000" font-family="sans-serif" font-size="14" font-weight="bold" lengthAdjust="spacing" textLength="28" x="42" y="694.5332">Hub</text></g><!--MD5=[c018863fe2304e0ca952616611326b6e]
cluster Host--><g id="cluster_Host"><path d="M451.5,687 L484.5,687 A3.75,3.75 0 0 1 487,689.5 L494,710.6094 L1149.5,710.6094 A2.5,2.5 0 0 1 1152,713.1094 L1152,828.5 A2.5,2.5 0 0 1 1149.5,831 L451.5,831 A2.5,2.5 0 0 1 449,828.5 L449,689.5 A2.5,2.5 0 0 1 451.5,687 " fill="none" style="stroke:#000000;stroke-width:1.5;"/><line style="stroke:#000000;stroke-width:1.5;" x1="449" x2="494" y1="710.6094" y2="710.6094"/><text fill="#000000" font-family="sans-serif" font-size="14" font-weight="bold" lengthAdjust="spacing" textLength="32" x="453" y="703.5332">Host</text></g><!--MD5=[e5f667b5311306cc91fbdfbce3163ce7]
cluster Exceptions--><g id="cluster_Exceptions"><path d="M451.5,504 L530.5,504 A3.75,3.75 0 0 1 533,506.5 L540,527.6094 L1111.5,527.6094 A2.5,2.5 0 0 1 1114,530.1094 L1114,635.5 A2.5,2.5 0 0 1 1111.5,638 L451.5,638 A2.5,2.5 0 0 1 449,635.5 L449,506.5 A2.5,2.5 0 0 1 451.5,504 " fill="none" style="stroke:#000000;stroke-width:1.5;"/><line style="stroke:#000000;stroke-width:1.5;" x1="449" x2="540" y1="527.6094" y2="527.6094"/><text fill="#000000" font-family="sans-serif" font-size="14" font-weight="bold" lengthAdjust="spacing" textLength="78" x="453" y="520.5332">Exceptions</text></g><!--MD5=[c275a1672b9721ecc052da8ac53accf0]
class ActionConditionalChecker--><g id="elem_ActionConditionalChecker"><rect codeLine="3" fill="#F1F1F1" height="188.875" id="ActionConditionalChecker" rx="2.5" ry="2.5" style="stroke:#181818;stroke-width:0.5;" width="991" x="83.5" y="42"/><ellipse cx="493.25" cy="58" fill="#ADD1B2" rx="11" ry="11" style="stroke:#181818;stroke-width:1.0;"/><path d="M496.0156,53.875 Q496.1719,53.6563 496.3594,53.5469 Q496.5469,53.4375 496.7656,53.4375 Q497.1406,53.4375 497.375,53.7031 Q497.6094,53.9531 497.6094,54.5625 L497.6094,56.0156 Q497.6094,56.625 497.375,56.8906 Q497.1406,57.1563 496.7656,57.1563 Q496.4219,57.1563 496.2188,56.9531 Q496.0156,56.7656 495.9063,56.25 Q495.8594,55.8906 495.6719,55.7031 Q495.3438,55.3281 494.7344,55.1094 Q494.125,54.8906 493.5,54.8906 Q492.7344,54.8906 492.0938,55.2188 Q491.4688,55.5469 490.9688,56.2969 Q490.4844,57.0469 490.4844,58.0781 L490.4844,59.1719 Q490.4844,60.4063 491.375,61.2344 Q492.2656,62.0469 493.8594,62.0469 Q494.7969,62.0469 495.4531,61.7969 Q495.8438,61.6406 496.2656,61.2031 Q496.5313,60.9375 496.6719,60.8594 Q496.8281,60.7813 497.0313,60.7813 Q497.3594,60.7813 497.6094,61.0469 Q497.875,61.2969 497.875,61.6406 Q497.875,61.9844 497.5313,62.3906 Q497.0313,62.9688 496.2344,63.2969 Q495.1563,63.75 493.8594,63.75 Q492.3438,63.75 491.1406,63.125 Q490.1563,62.625 489.4688,61.5625 Q488.7813,60.4844 488.7813,59.2031 L488.7813,58.0469 Q488.7813,56.7188 489.3906,55.5781 Q490.0156,54.4219 491.1094,53.8125 Q492.2031,53.1875 493.4375,53.1875 Q494.1719,53.1875 494.8125,53.3594 Q495.4688,53.5156 496.0156,53.875 Z " fill="#000000"/><text fill="#000000" font-family="sans-serif" font-size="14" lengthAdjust="spacing" textLength="163" x="513.75" y="63.7285">ActionConditionalChecker</text><line style="stroke:#181818;stroke-width:0.5;" x1="84.5" x2="1073.5" y1="74" y2="74"/><line style="stroke:#181818;stroke-width:0.5;" x1="84.5" x2="1073.5" y1="82" y2="82"/><ellipse cx="94.5" cy="96.3047" fill="#84BE84" rx="3" ry="3" style="stroke:#038048;stroke-width:1.0;"/><text fill="#000000" font-family="sans-serif" font-size="14" lengthAdjust="spacing" textLength="730" x="103.5" y="100.5332">CanExecute&lt;TRequest&gt;(accessCondition : AccessCondition.AccessCondition&lt;TRequest&gt;) : OperationResult&lt;bool&gt;</text><ellipse cx="94.5" cy="113.9141" fill="#84BE84" rx="3" ry="3" style="stroke:#038048;stroke-width:1.0;"/><text fill="#000000" font-family="sans-serif" font-size="14" lengthAdjust="spacing" textLength="655" x="103.5" y="118.1426">EnsureCanExecute&lt;TRequest&gt;(accessCondition : AccessCondition.AccessCondition&lt;TRequest&gt;) : void</text><ellipse cx="94.5" cy="131.5234" fill="#84BE84" rx="3" ry="3" style="stroke:#038048;stroke-width:1.0;"/><text fill="#000000" font-family="sans-serif" font-size="14" lengthAdjust="spacing" textLength="670" x="103.5" y="135.752">ExecuteOrThrowException&lt;TRequest&gt;(actionInfo : ActionInfo&lt;TRequest&gt;) : OperationResult&lt;ActionState&gt;</text><ellipse cx="94.5" cy="149.1328" fill="#84BE84" rx="3" ry="3" style="stroke:#038048;stroke-width:1.0;"/><text fill="#000000" font-family="sans-serif" font-size="14" lengthAdjust="spacing" textLength="597" x="103.5" y="153.3613">ExecuteOrSkip&lt;TRequest&gt;(actionInfo : ActionInfo&lt;TRequest&gt;) : OperationResult&lt;ActionState&gt;</text><ellipse cx="94.5" cy="166.7422" fill="#84BE84" rx="3" ry="3" style="stroke:#038048;stroke-width:1.0;"/><text fill="#000000" font-family="sans-serif" font-size="14" lengthAdjust="spacing" textLength="554" x="103.5" y="170.9707">Execute&lt;TRequest&gt;(actionInfo : ActionInfo&lt;TRequest&gt;) : OperationResult&lt;ActionState&gt;</text><ellipse cx="94.5" cy="184.3516" fill="#84BE84" rx="3" ry="3" style="stroke:#038048;stroke-width:1.0;"/><text fill="#000000" font-family="sans-serif" font-size="14" lengthAdjust="spacing" textLength="965" x="103.5" y="188.5801">ExecuteOrThrowException&lt;TRequest, TResponse&gt;(actionInfo : ActionInfo&lt;TRequest, TResponse&gt;) : OperationResult&lt;Tuple&lt;ActionState, TResponse&gt;&gt;</text><ellipse cx="94.5" cy="201.9609" fill="#84BE84" rx="3" ry="3" style="stroke:#038048;stroke-width:1.0;"/><text fill="#000000" font-family="sans-serif" font-size="14" lengthAdjust="spacing" textLength="892" x="103.5" y="206.1895">ExecuteOrSkip&lt;TRequest, TResponse&gt;(actionInfo : ActionInfo&lt;TRequest, TResponse&gt;) : OperationResult&lt;Tuple&lt;ActionState, TResponse&gt;&gt;</text><ellipse cx="94.5" cy="219.5703" fill="#84BE84" rx="3" ry="3" style="stroke:#038048;stroke-width:1.0;"/><text fill="#000000" font-family="sans-serif" font-size="14" lengthAdjust="spacing" textLength="849" x="103.5" y="223.7988">Execute&lt;TRequest, TResponse&gt;(actionInfo : ActionInfo&lt;TRequest, TResponse&gt;) : OperationResult&lt;Tuple&lt;ActionState, TResponse&gt;&gt;</text></g><!--MD5=[5a792ea4113f921a1a678f66c6339204]
class AsyncActionConditionalChecker--><g id="elem_AsyncActionConditionalChecker"><rect codeLine="14" fill="#F1F1F1" height="188.875" id="AsyncActionConditionalChecker" rx="2.5" ry="2.5" style="stroke:#181818;stroke-width:0.5;" width="1114" x="22" y="291"/><ellipse cx="474.25" cy="307" fill="#ADD1B2" rx="11" ry="11" style="stroke:#181818;stroke-width:1.0;"/><path d="M477.0156,302.875 Q477.1719,302.6563 477.3594,302.5469 Q477.5469,302.4375 477.7656,302.4375 Q478.1406,302.4375 478.375,302.7031 Q478.6094,302.9531 478.6094,303.5625 L478.6094,305.0156 Q478.6094,305.625 478.375,305.8906 Q478.1406,306.1563 477.7656,306.1563 Q477.4219,306.1563 477.2188,305.9531 Q477.0156,305.7656 476.9063,305.25 Q476.8594,304.8906 476.6719,304.7031 Q476.3438,304.3281 475.7344,304.1094 Q475.125,303.8906 474.5,303.8906 Q473.7344,303.8906 473.0938,304.2188 Q472.4688,304.5469 471.9688,305.2969 Q471.4844,306.0469 471.4844,307.0781 L471.4844,308.1719 Q471.4844,309.4063 472.375,310.2344 Q473.2656,311.0469 474.8594,311.0469 Q475.7969,311.0469 476.4531,310.7969 Q476.8438,310.6406 477.2656,310.2031 Q477.5313,309.9375 477.6719,309.8594 Q477.8281,309.7813 478.0313,309.7813 Q478.3594,309.7813 478.6094,310.0469 Q478.875,310.2969 478.875,310.6406 Q478.875,310.9844 478.5313,311.3906 Q478.0313,311.9688 477.2344,312.2969 Q476.1563,312.75 474.8594,312.75 Q473.3438,312.75 472.1406,312.125 Q471.1563,311.625 470.4688,310.5625 Q469.7813,309.4844 469.7813,308.2031 L469.7813,307.0469 Q469.7813,305.7188 470.3906,304.5781 Q471.0156,303.4219 472.1094,302.8125 Q473.2031,302.1875 474.4375,302.1875 Q475.1719,302.1875 475.8125,302.3594 Q476.4688,302.5156 477.0156,302.875 Z " fill="#000000"/><text fill="#000000" font-family="sans-serif" font-size="14" lengthAdjust="spacing" textLength="201" x="494.75" y="312.7285">AsyncActionConditionalChecker</text><line style="stroke:#181818;stroke-width:0.5;" x1="23" x2="1135" y1="323" y2="323"/><line style="stroke:#181818;stroke-width:0.5;" x1="23" x2="1135" y1="331" y2="331"/><ellipse cx="33" cy="345.3047" fill="#84BE84" rx="3" ry="3" style="stroke:#038048;stroke-width:1.0;"/><text fill="#000000" font-family="sans-serif" font-size="14" lengthAdjust="spacing" textLength="853" x="42" y="349.5332">CanExecuteAsync&lt;TRequest&gt;(accessCondition : AccessCondition.AsyncAccessCondition&lt;TRequest&gt;) : Task&lt;OperationResult&lt;bool&gt;&gt;</text><ellipse cx="33" cy="362.9141" fill="#84BE84" rx="3" ry="3" style="stroke:#038048;stroke-width:1.0;"/><text fill="#000000" font-family="sans-serif" font-size="14" lengthAdjust="spacing" textLength="736" x="42" y="367.1426">EnsureCanExecuteAsync&lt;TRequest&gt;(accessCondition : AccessCondition.AsyncAccessCondition&lt;TRequest&gt;) : Task</text><ellipse cx="33" cy="380.5234" fill="#84BE84" rx="3" ry="3" style="stroke:#038048;stroke-width:1.0;"/><text fill="#000000" font-family="sans-serif" font-size="14" lengthAdjust="spacing" textLength="793" x="42" y="384.752">ExecuteOrThrowExceptionAsync&lt;TRequest&gt;(actionInfo : AsyncActionInfo&lt;TRequest&gt;) : Task&lt;OperationResult&lt;ActionState&gt;&gt;</text><ellipse cx="33" cy="398.1328" fill="#84BE84" rx="3" ry="3" style="stroke:#038048;stroke-width:1.0;"/><text fill="#000000" font-family="sans-serif" font-size="14" lengthAdjust="spacing" textLength="720" x="42" y="402.3613">ExecuteOrSkipAsync&lt;TRequest&gt;(actionInfo : AsyncActionInfo&lt;TRequest&gt;) : Task&lt;OperationResult&lt;ActionState&gt;&gt;</text><ellipse cx="33" cy="415.7422" fill="#84BE84" rx="3" ry="3" style="stroke:#038048;stroke-width:1.0;"/><text fill="#000000" font-family="sans-serif" font-size="14" lengthAdjust="spacing" textLength="677" x="42" y="419.9707">ExecuteAsync&lt;TRequest&gt;(actionInfo : AsyncActionInfo&lt;TRequest&gt;) : Task&lt;OperationResult&lt;ActionState&gt;&gt;</text><ellipse cx="33" cy="433.3516" fill="#84BE84" rx="3" ry="3" style="stroke:#038048;stroke-width:1.0;"/><text fill="#000000" font-family="sans-serif" font-size="14" lengthAdjust="spacing" textLength="1088" x="42" y="437.5801">ExecuteOrThrowExceptionAsync&lt;TRequest, TResponse&gt;(actionInfo : AsyncActionInfo&lt;TRequest, TResponse&gt;) : Task&lt;OperationResult&lt;Tuple&lt;ActionState, TResponse&gt;&gt;&gt;</text><ellipse cx="33" cy="450.9609" fill="#84BE84" rx="3" ry="3" style="stroke:#038048;stroke-width:1.0;"/><text fill="#000000" font-family="sans-serif" font-size="14" lengthAdjust="spacing" textLength="1015" x="42" y="455.1895">ExecuteOrSkipAsync&lt;TRequest, TResponse&gt;(actionInfo : AsyncActionInfo&lt;TRequest, TResponse&gt;) : Task&lt;OperationResult&lt;Tuple&lt;ActionState, TResponse&gt;&gt;&gt;</text><ellipse cx="33" cy="468.5703" fill="#84BE84" rx="3" ry="3" style="stroke:#038048;stroke-width:1.0;"/><text fill="#000000" font-family="sans-serif" font-size="14" lengthAdjust="spacing" textLength="972" x="42" y="472.7988">ExecuteAsync&lt;TRequest, TResponse&gt;(AsyncActionInfo&lt;TRequest, actionInfo : TResponse&gt;) : Task&lt;OperationResult&lt;Tuple&lt;ActionState, TResponse&gt;&gt;&gt;</text></g><!--MD5=[9a5614c5d4d087a6fdbc925516b55bd7]
class ActionsCheckerHub--><g id="elem_ActionsCheckerHub"><rect codeLine="26" fill="#F1F1F1" height="93.9219" id="ActionsCheckerHub" rx="2.5" ry="2.5" style="stroke:#181818;stroke-width:0.5;" width="304" x="81" y="722"/><ellipse cx="166.75" cy="743.3516" fill="#ADD1B2" rx="11" ry="11" style="stroke:#181818;stroke-width:1.0;"/><path d="M169.5156,739.2266 Q169.6719,739.0078 169.8594,738.8984 Q170.0469,738.7891 170.2656,738.7891 Q170.6406,738.7891 170.875,739.0547 Q171.1094,739.3047 171.1094,739.9141 L171.1094,741.3672 Q171.1094,741.9766 170.875,742.2422 Q170.6406,742.5078 170.2656,742.5078 Q169.9219,742.5078 169.7188,742.3047 Q169.5156,742.1172 169.4063,741.6016 Q169.3594,741.2422 169.1719,741.0547 Q168.8438,740.6797 168.2344,740.4609 Q167.625,740.2422 167,740.2422 Q166.2344,740.2422 165.5938,740.5703 Q164.9688,740.8984 164.4688,741.6484 Q163.9844,742.3984 163.9844,743.4297 L163.9844,744.5234 Q163.9844,745.7578 164.875,746.5859 Q165.7656,747.3984 167.3594,747.3984 Q168.2969,747.3984 168.9531,747.1484 Q169.3438,746.9922 169.7656,746.5547 Q170.0313,746.2891 170.1719,746.2109 Q170.3281,746.1328 170.5313,746.1328 Q170.8594,746.1328 171.1094,746.3984 Q171.375,746.6484 171.375,746.9922 Q171.375,747.3359 171.0313,747.7422 Q170.5313,748.3203 169.7344,748.6484 Q168.6563,749.1016 167.3594,749.1016 Q165.8438,749.1016 164.6406,748.4766 Q163.6563,747.9766 162.9688,746.9141 Q162.2813,745.8359 162.2813,744.5547 L162.2813,743.3984 Q162.2813,742.0703 162.8906,740.9297 Q163.5156,739.7734 164.6094,739.1641 Q165.7031,738.5391 166.9375,738.5391 Q167.6719,738.5391 168.3125,738.7109 Q168.9688,738.8672 169.5156,739.2266 Z " fill="#000000"/><text fill="#000000" font-family="sans-serif" font-size="12" font-style="italic" lengthAdjust="spacing" textLength="42" x="228.25" y="739.457">«static»</text><text fill="#000000" font-family="sans-serif" font-size="14" lengthAdjust="spacing" textLength="124" x="187.25" y="756.627">ActionsCheckerHub</text><line style="stroke:#181818;stroke-width:0.5;" x1="82" x2="384" y1="764.7031" y2="764.7031"/><ellipse cx="92" cy="779.0078" fill="none" rx="3" ry="3" style="stroke:#038048;stroke-width:1.0;"/><text fill="#000000" font-family="sans-serif" font-size="14" lengthAdjust="spacing" textLength="264" x="101" y="783.2363">static Actions : BlockingCollection&lt;object&gt;</text><ellipse cx="92" cy="796.6172" fill="none" rx="3" ry="3" style="stroke:#038048;stroke-width:1.0;"/><text fill="#000000" font-family="sans-serif" font-size="14" lengthAdjust="spacing" textLength="278" x="101" y="800.8457">static «get» readonly _lockForErase : object</text><line style="stroke:#181818;stroke-width:0.5;" x1="82" x2="384" y1="807.9219" y2="807.9219"/></g><!--MD5=[be7a3ead867f3dbf8ac0d10f25849572]
class ActionConditionalCheckerInstaller--><g id="elem_ActionConditionalCheckerInstaller"><rect codeLine="33" fill="#F1F1F1" height="76.3125" id="ActionConditionalCheckerInstaller" rx="2.5" ry="2.5" style="stroke:#181818;stroke-width:0.5;" width="636" x="492" y="731"/><ellipse cx="699.75" cy="752.3516" fill="#ADD1B2" rx="11" ry="11" style="stroke:#181818;stroke-width:1.0;"/><path d="M702.5156,748.2266 Q702.6719,748.0078 702.8594,747.8984 Q703.0469,747.7891 703.2656,747.7891 Q703.6406,747.7891 703.875,748.0547 Q704.1094,748.3047 704.1094,748.9141 L704.1094,750.3672 Q704.1094,750.9766 703.875,751.2422 Q703.6406,751.5078 703.2656,751.5078 Q702.9219,751.5078 702.7188,751.3047 Q702.5156,751.1172 702.4063,750.6016 Q702.3594,750.2422 702.1719,750.0547 Q701.8438,749.6797 701.2344,749.4609 Q700.625,749.2422 700,749.2422 Q699.2344,749.2422 698.5938,749.5703 Q697.9688,749.8984 697.4688,750.6484 Q696.9844,751.3984 696.9844,752.4297 L696.9844,753.5234 Q696.9844,754.7578 697.875,755.5859 Q698.7656,756.3984 700.3594,756.3984 Q701.2969,756.3984 701.9531,756.1484 Q702.3438,755.9922 702.7656,755.5547 Q703.0313,755.2891 703.1719,755.2109 Q703.3281,755.1328 703.5313,755.1328 Q703.8594,755.1328 704.1094,755.3984 Q704.375,755.6484 704.375,755.9922 Q704.375,756.3359 704.0313,756.7422 Q703.5313,757.3203 702.7344,757.6484 Q701.6563,758.1016 700.3594,758.1016 Q698.8438,758.1016 697.6406,757.4766 Q696.6563,756.9766 695.9688,755.9141 Q695.2813,754.8359 695.2813,753.5547 L695.2813,752.3984 Q695.2813,751.0703 695.8906,749.9297 Q696.5156,748.7734 697.6094,748.1641 Q698.7031,747.5391 699.9375,747.5391 Q700.6719,747.5391 701.3125,747.7109 Q701.9688,747.8672 702.5156,748.2266 Z " fill="#000000"/><text fill="#000000" font-family="sans-serif" font-size="12" font-style="italic" lengthAdjust="spacing" textLength="42" x="805.25" y="748.457">«static»</text><text fill="#000000" font-family="sans-serif" font-size="14" lengthAdjust="spacing" textLength="212" x="720.25" y="765.627">ActionConditionalCheckerInstaller</text><line style="stroke:#181818;stroke-width:0.5;" x1="493" x2="1127" y1="773.7031" y2="773.7031"/><line style="stroke:#181818;stroke-width:0.5;" x1="493" x2="1127" y1="781.7031" y2="781.7031"/><ellipse cx="503" cy="796.0078" fill="#84BE84" rx="3" ry="3" style="stroke:#038048;stroke-width:1.0;"/><text fill="#000000" font-family="sans-serif" font-size="14" lengthAdjust="spacing" textLength="610" x="512" y="800.2363">static AddActionConditionalCheckerInstaller(this services : IServiceCollection) : IServiceCollection</text></g><!--MD5=[6591fc9c6946d30a7d13a9fda2bc2b61]
class LockedResourceException--><g id="elem_LockedResourceException"><rect codeLine="39" fill="#F1F1F1" height="65.6094" id="LockedResourceException" rx="2.5" ry="2.5" style="stroke:#181818;stroke-width:0.5;" width="598" x="492" y="548"/><ellipse cx="674.25" cy="564" fill="#ADD1B2" rx="11" ry="11" style="stroke:#181818;stroke-width:1.0;"/><path d="M677.0156,559.875 Q677.1719,559.6563 677.3594,559.5469 Q677.5469,559.4375 677.7656,559.4375 Q678.1406,559.4375 678.375,559.7031 Q678.6094,559.9531 678.6094,560.5625 L678.6094,562.0156 Q678.6094,562.625 678.375,562.8906 Q678.1406,563.1563 677.7656,563.1563 Q677.4219,563.1563 677.2188,562.9531 Q677.0156,562.7656 676.9063,562.25 Q676.8594,561.8906 676.6719,561.7031 Q676.3438,561.3281 675.7344,561.1094 Q675.125,560.8906 674.5,560.8906 Q673.7344,560.8906 673.0938,561.2188 Q672.4688,561.5469 671.9688,562.2969 Q671.4844,563.0469 671.4844,564.0781 L671.4844,565.1719 Q671.4844,566.4063 672.375,567.2344 Q673.2656,568.0469 674.8594,568.0469 Q675.7969,568.0469 676.4531,567.7969 Q676.8438,567.6406 677.2656,567.2031 Q677.5313,566.9375 677.6719,566.8594 Q677.8281,566.7813 678.0313,566.7813 Q678.3594,566.7813 678.6094,567.0469 Q678.875,567.2969 678.875,567.6406 Q678.875,567.9844 678.5313,568.3906 Q678.0313,568.9688 677.2344,569.2969 Q676.1563,569.75 674.8594,569.75 Q673.3438,569.75 672.1406,569.125 Q671.1563,568.625 670.4688,567.5625 Q669.7813,566.4844 669.7813,565.2031 L669.7813,564.0469 Q669.7813,562.7188 670.3906,561.5781 Q671.0156,560.4219 672.1094,559.8125 Q673.2031,559.1875 674.4375,559.1875 Q675.1719,559.1875 675.8125,559.3594 Q676.4688,559.5156 677.0156,559.875 Z " fill="#000000"/><text fill="#000000" font-family="sans-serif" font-size="14" lengthAdjust="spacing" textLength="168" x="694.75" y="569.7285">LockedResourceException</text><rect fill="#FFFFFF" height="17.0938" style="stroke:#181818;stroke-width:1.0;stroke-dasharray:2.0,2.0;" width="55" x="1038" y="545"/><text fill="#000000" font-family="sans-serif" font-size="12" font-style="italic" lengthAdjust="spacing" textLength="53" x="1039" y="558.457">TRequest</text><line style="stroke:#181818;stroke-width:0.5;" x1="493" x2="1089" y1="580" y2="580"/><line style="stroke:#181818;stroke-width:0.5;" x1="493" x2="1089" y1="588" y2="588"/><polygon fill="#FFFF44" points="503,597.3047,507,601.3047,503,605.3047,499,601.3047" style="stroke:#B38D22;stroke-width:1.0;"/><text fill="#000000" font-family="sans-serif" font-size="14" lengthAdjust="spacing" textLength="572" x="512" y="606.5332">^ConstructExceptionMessage(accessCondition : BaseAccessCondition&lt;TRequest&gt;) : string</text></g><!--MD5=[b51e002a009a7be3dfda7b86b7dc02ee]
link ActionConditionalChecker to AsyncActionConditionalChecker--><!--MD5=[0cf96d50c0be1404ed6df35d38291d3e]
link AsyncActionConditionalChecker to Exceptions--><!--MD5=[817c0d0954bc7a5297b89e6da1fa55d1]
link Exceptions to Hub--><!--MD5=[e813956969ef758f49f9a0eee9815a16]
link Exceptions to Host--><!--MD5=[47d9914d01ade00d7ce145ee67e27ebd]
@startuml ActionConditionalCheckerInMemory

package ActionConditionalChecker.Services.InMemory {
    class ActionConditionalChecker {
        + CanExecute<TRequest>(accessCondition : AccessCondition.AccessCondition<TRequest>) : OperationResult<bool>
        + EnsureCanExecute<TRequest>(accessCondition : AccessCondition.AccessCondition<TRequest>) : void
        + ExecuteOrThrowException<TRequest>(actionInfo : ActionInfo<TRequest>) : OperationResult<ActionState>
        + ExecuteOrSkip<TRequest>(actionInfo : ActionInfo<TRequest>) : OperationResult<ActionState>
        + Execute<TRequest>(actionInfo : ActionInfo<TRequest>) : OperationResult<ActionState>
        + ExecuteOrThrowException<TRequest, TResponse>(actionInfo : ActionInfo<TRequest, TResponse>) : OperationResult<Tuple<ActionState, TResponse>>
        + ExecuteOrSkip<TRequest, TResponse>(actionInfo : ActionInfo<TRequest, TResponse>) : OperationResult<Tuple<ActionState, TResponse>>
        + Execute<TRequest, TResponse>(actionInfo : ActionInfo<TRequest, TResponse>) : OperationResult<Tuple<ActionState, TResponse>>
    }

    class AsyncActionConditionalChecker {
        + CanExecuteAsync<TRequest>(accessCondition : AccessCondition.AsyncAccessCondition<TRequest>) : Task<OperationResult<bool>>
        + EnsureCanExecuteAsync<TRequest>(accessCondition : AccessCondition.AsyncAccessCondition<TRequest>) : Task
        + ExecuteOrThrowExceptionAsync<TRequest>(actionInfo : AsyncActionInfo<TRequest>) : Task<OperationResult<ActionState>>
        + ExecuteOrSkipAsync<TRequest>(actionInfo : AsyncActionInfo<TRequest>) : Task<OperationResult<ActionState>>
        + ExecuteAsync<TRequest>(actionInfo : AsyncActionInfo<TRequest>) : Task<OperationResult<ActionState>>
        + ExecuteOrThrowExceptionAsync<TRequest, TResponse>(actionInfo : AsyncActionInfo<TRequest, TResponse>) : Task<OperationResult<Tuple<ActionState, TResponse>>>
        + ExecuteOrSkipAsync<TRequest, TResponse>(actionInfo : AsyncActionInfo<TRequest, TResponse>) : Task<OperationResult<Tuple<ActionState, TResponse>>>
        + ExecuteAsync<TRequest, TResponse>(AsyncActionInfo<TRequest, actionInfo : TResponse>) : Task<OperationResult<Tuple<ActionState, TResponse>>>
    }

    package Hub {
        class ActionsCheckerHub <<static>> {
            + static Actions : BlockingCollection<object>
            + static <<get>> readonly _lockForErase : object
        }
    }

    package Host {
        class ActionConditionalCheckerInstaller <<static>> {
            + static AddActionConditionalCheckerInstaller(this services : IServiceCollection) : IServiceCollection
        }
    }

    package Exceptions {
       class LockedResourceException<TRequest> {
            # ^ConstructExceptionMessage(accessCondition : BaseAccessCondition<TRequest>) : string
       }
    }

    ActionConditionalChecker -[hidden]- AsyncActionConditionalChecker
    AsyncActionConditionalChecker -[hidden]- Exceptions

    Exceptions -[hidden]- Hub
    Exceptions -[hidden]- Host
}

@enduml

PlantUML version 1.2022.7(Mon Aug 22 20:01:30 EEST 2022)
(GPL source distribution)
Java Runtime: Java(TM) SE Runtime Environment
JVM: Java HotSpot(TM) 64-Bit Server VM
Default Encoding: UTF-8
Language: en
Country: US
--></g></svg>